<svg width="21" height="20" viewBox="0 0 21 20" fill="none" xmlns="http://www.w3.org/2000/svg">
<path d="M6 15.5C6 15.1044 5.8827 14.7178 5.66294 14.3889C5.44318 14.06 5.13082 13.8036 4.76537 13.6522C4.39992 13.5009 3.99778 13.4613 3.60982 13.5384C3.22186 13.6156 2.86549 13.8061 2.58579 14.0858C2.30608 14.3655 2.1156 14.7219 2.03843 15.1098C1.96126 15.4978 2.00087 15.8999 2.15224 16.2654C2.30362 16.6308 2.55996 16.9432 2.88886 17.1629C3.21776 17.3827 3.60444 17.5 4 17.5C4.53043 17.5 5.03914 17.2893 5.41421 16.9142C5.78929 16.5391 6 16.0304 6 15.5V15.5Z" stroke="#464646" stroke-width="1.6" stroke-linecap="round" stroke-linejoin="round"/>
<path d="M15 15.5C15 15.1044 14.8827 14.7178 14.6629 14.3889C14.4432 14.06 14.1308 13.8036 13.7654 13.6522C13.3999 13.5009 12.9978 13.4613 12.6098 13.5384C12.2219 13.6156 11.8655 13.8061 11.5858 14.0858C11.3061 14.3655 11.1156 14.7219 11.0384 15.1098C10.9613 15.4978 11.0009 15.8999 11.1522 16.2654C11.3036 16.6308 11.56 16.9432 11.8889 17.1629C12.2178 17.3827 12.6044 17.5 13 17.5C13.5304 17.5 14.0391 17.2893 14.4142 16.9142C14.7893 16.5391 15 16.0304 15 15.5V15.5Z" stroke="#464646" stroke-width="1.6" stroke-linecap="round" stroke-linejoin="round"/>
<path d="M12 4.5H2.38743C1.70487 4.5 1.2229 5.1687 1.43874 5.81623L2.77208 9.81623C2.90819 10.2246 3.29033 10.5 3.72076 10.5H13L15.7567 3.14888C15.903 2.75857 16.2762 2.5 16.693 2.5H20" stroke="#464646" stroke-width="1.6"/>
<path d="M4 13.5H12L15.7606 3.15826C15.9043 2.76307 16.2799 2.5 16.7004 2.5H20" stroke="#464646" stroke-width="1.6"/>
</svg>
