<svg width="21" height="22" viewBox="0 0 21 22" fill="none" xmlns="http://www.w3.org/2000/svg">
<path d="M10.3355 2.42857C10.5384 2.429 10.739 2.47283 10.9237 2.55714L18.8095 6.31783C18.8384 6.32737 18.866 6.34057 18.8915 6.35712C18.8705 6.37266 18.8478 6.38584 18.8238 6.3964L10.9237 10.1571C10.7389 10.2409 10.5383 10.2843 10.3355 10.2843C10.1326 10.2843 9.93205 10.2409 9.74723 10.1571L1.86138 6.3964C1.83249 6.38687 1.80494 6.37366 1.77939 6.35712C1.80046 6.34157 1.82317 6.3284 1.84712 6.31783L9.74723 2.55714C9.93194 2.47283 10.1325 2.429 10.3355 2.42857ZM10.3355 1.00001C9.92013 0.998992 9.50976 1.09048 9.13405 1.26786L1.2482 5.02498C0.979946 5.12907 0.749388 5.312 0.586806 5.54974C0.424224 5.78749 0.337219 6.06893 0.337219 6.35712C0.337219 6.6453 0.424224 6.92675 0.586806 7.1645C0.749388 7.40224 0.979946 7.58517 1.2482 7.68925L9.13405 11.4464C9.51011 11.6227 9.92025 11.7141 10.3355 11.7141C10.7507 11.7141 11.1608 11.6227 11.5369 11.4464L19.4227 7.68925C19.691 7.58517 19.9215 7.40224 20.0841 7.1645C20.2467 6.92675 20.3337 6.6453 20.3337 6.35712C20.3337 6.06893 20.2467 5.78749 20.0841 5.54974C19.9215 5.312 19.691 5.12907 19.4227 5.02498L11.5369 1.26786C11.1612 1.09048 10.7508 0.998992 10.3355 1.00001Z" fill="#4D4D4F" stroke="#4D4D4F" stroke-width="0.2"/>
<path d="M10.3351 16.1069C9.79981 16.1096 9.27127 15.9873 8.79142 15.7497L0.748709 11.7462C0.661942 11.7063 0.584063 11.6493 0.519694 11.5786C0.455324 11.508 0.405775 11.4251 0.373987 11.3349C0.342199 11.2447 0.328818 11.149 0.334639 11.0535C0.340461 10.9581 0.365365 10.8647 0.407875 10.7791C0.450385 10.6934 0.509635 10.6172 0.582109 10.5549C0.654584 10.4927 0.738806 10.4456 0.829779 10.4166C0.920752 10.3875 1.01662 10.3771 1.1117 10.3858C1.20678 10.3946 1.29914 10.4224 1.38328 10.4676L9.42599 14.4676C9.70887 14.6069 10.0199 14.6793 10.3351 14.6793C10.6503 14.6793 10.9613 14.6069 11.2442 14.4676L19.2869 10.4676C19.4553 10.3901 19.6471 10.3814 19.8219 10.4432C19.9966 10.505 20.1404 10.6325 20.2229 10.7987C20.3054 10.9649 20.3201 11.1568 20.2638 11.3336C20.2075 11.5105 20.0847 11.6585 19.9214 11.7462L11.8787 15.7462C11.3992 15.985 10.8706 16.1085 10.3351 16.1069Z" fill="#4D4D4F" stroke="#4D4D4F" stroke-width="0.2"/>
<path d="M10.3351 20.9999C9.8 21.001 9.27184 20.8788 8.79142 20.6428L0.74871 16.6392C0.661942 16.5993 0.584063 16.5423 0.519694 16.4717C0.455324 16.401 0.405775 16.3182 0.373987 16.228C0.342199 16.1378 0.328818 16.0421 0.334639 15.9466C0.340461 15.8511 0.365365 15.7578 0.407875 15.6722C0.450386 15.5865 0.509635 15.5103 0.582109 15.448C0.654584 15.3857 0.738806 15.3387 0.829779 15.3096C0.920752 15.2806 1.01662 15.2701 1.1117 15.2789C1.20678 15.2877 1.29914 15.3155 1.38329 15.3607L9.426 19.3607C9.70887 19.5 10.0199 19.5724 10.3351 19.5724C10.6503 19.5724 10.9613 19.5 11.2442 19.3607L19.2869 15.3607C19.4553 15.2832 19.6471 15.2744 19.8219 15.3362C19.9966 15.398 20.1404 15.5255 20.2229 15.6918C20.3054 15.858 20.3201 16.0498 20.2638 16.2267C20.2075 16.4035 20.0847 16.5515 19.9214 16.6392L11.8787 20.6428C11.3983 20.8788 10.8702 21.001 10.3351 20.9999Z" fill="#4D4D4F" stroke="#4D4D4F" stroke-width="0.2"/>
</svg>
