<svg width="48" height="20" viewBox="0 0 48 20" fill="none" xmlns="http://www.w3.org/2000/svg">
<g clip-path="url(#clip0_1257_10734)">
<path d="M12.0788 2.31832C12.2868 1.41804 11.788 0.534196 10.9648 0.34421C10.1416 0.154223 9.30558 0.730035 9.09757 1.63032C8.88957 2.53061 9.38831 3.41445 10.2116 3.60444C11.0348 3.79442 11.8708 3.21861 12.0788 2.31832Z" fill="#D11243"/>
<path d="M23.6886 2.31781C23.8965 1.41752 23.3977 0.533744 22.5745 0.343842C21.7512 0.15394 20.9153 0.729822 20.7074 1.63011C20.4995 2.5304 20.9983 3.41417 21.8215 3.60407C22.6448 3.79397 23.4807 3.21809 23.6886 2.31781Z" fill="#D11243"/>
<path d="M7.53983 12.9941C9.3612 15.6145 11.6312 17.006 15.1627 17.006C19.0799 17.006 21.924 15.2335 23.5782 12.9225C24.629 13.4842 24.9779 14.1164 24.9779 14.8052C24.9779 16.7885 21.2887 20 15.6941 20C10.8652 20 7.53092 17.2489 6.5842 14.7115C6.2428 13.7968 6.75919 13.0081 7.53983 12.9941Z" fill="#D11243"/>
<path d="M48 12.1927C48 13.84 46.5156 15.3063 44.7389 15.3063C42.7788 15.3063 41.6913 14.1215 41.6913 12.9354C41.6913 11.7493 42.5656 10.9217 43.638 11.3235C43.3899 11.5042 43.3105 11.7313 43.3105 11.9679C43.3105 12.3024 43.5669 12.7204 44.1075 12.7204C44.5561 12.7204 44.9783 12.335 44.9783 11.6631C44.9783 10.6593 43.7857 9.65577 43.0303 8.36235C42.9016 9.05859 42.6237 9.70172 42.1878 10.3088C41.2085 11.6725 39.7963 12.7624 38.3446 12.7624C37.6389 12.7624 36.8411 12.2229 36.8411 11.2511C36.8411 11.1427 36.8471 11.0309 36.8576 10.9169C35.9687 11.9903 34.8414 12.7625 33.7419 12.7625C32.9298 12.7625 32.1955 12.2345 32.1955 11.2511C32.1955 10.0466 33.3267 7.72431 33.3267 6.09254C33.3267 5.77471 33.2362 5.41284 33.0311 5.1788C33.3622 4.7527 33.7322 4.38097 34.495 4.38097C35.2345 4.38097 35.9295 4.89627 35.9295 5.73671C35.9295 6.93474 35.1446 8.69703 35.1446 9.71492C35.1446 10.0251 35.3466 10.2072 35.6371 10.2072C36.7203 10.2072 37.951 7.63495 37.951 6.09239C37.951 5.7639 37.8465 5.38295 37.6624 5.1001C37.9935 4.67399 38.4501 4.37365 39.1264 4.37365C39.7792 4.37365 40.4894 4.88593 40.4894 5.66517C40.4894 6.94285 39.7617 8.92169 39.7617 9.71365C39.7617 9.98744 39.9238 10.2072 40.2726 10.2072C41.2077 10.2072 42.4239 8.10732 42.4239 6.34932C42.4239 6.34932 42.4245 6.32913 42.425 6.31959C42.4406 4.89372 43.5599 4.05328 44.6465 4.05328C45.296 4.05328 45.7182 4.33438 45.884 4.64204C45.254 4.64204 44.9419 5.25003 44.9419 5.93339C44.9413 8.15471 48 9.3672 48 12.1927ZM9.807 4.37397C9.13073 4.37397 8.64695 4.67892 8.29219 5.18119C8.50966 5.45561 8.63183 5.8143 8.63183 6.37842C8.63183 7.48438 7.52189 10.3345 7.52189 11.2603C7.52189 12.1863 8.31971 12.7625 9.02541 12.7625C9.6336 12.7625 10.3896 12.3867 10.8261 11.7163C10.5248 11.3947 10.3423 10.8487 10.3423 10.2522C10.3423 9.31012 11.17 7.01328 11.17 5.73576C11.17 4.95653 10.5339 4.37397 9.807 4.37397ZM21.4228 4.37397C20.7465 4.37397 20.2626 4.67892 19.9078 5.18119C20.1253 5.45561 20.2475 5.8143 20.2475 6.37842C20.2475 7.48438 19.1377 10.3345 19.1377 11.2603C19.1377 12.1863 19.9355 12.7625 20.6412 12.7625C21.2494 12.7625 22.0054 12.3867 22.4419 11.7163C22.1406 11.3947 21.9581 10.8487 21.9581 10.2522C21.9581 9.31012 22.7859 7.01328 22.7859 5.73576C22.7857 4.95653 22.1497 4.37397 21.4228 4.37397ZM31.8655 7.67565C31.8655 10.3398 29.6881 12.7625 26.9229 12.7625C25.015 12.7625 23.2733 11.738 23.2733 9.46085C23.2733 6.79673 25.4515 4.37397 28.2159 4.37397C30.1161 4.37413 31.8655 5.39869 31.8655 7.67565ZM29.092 8.75141C29.3319 7.39169 28.9094 6.26569 28.0771 6.11894C27.2449 5.97234 26.2889 7.02521 26.049 8.38493C25.8112 9.73336 26.3039 10.8835 27.1361 11.0301C27.9684 11.1769 28.8521 10.1111 29.092 8.75141ZM16.5064 7.34288C16.7093 7.61826 17.0492 7.82384 17.5647 7.82384C18.3097 7.82384 18.8785 7.13316 18.8785 6.08793C18.8785 5.23461 18.1025 4.37397 16.6243 4.37397C14.0177 4.37397 11.6578 6.85826 11.6578 9.56515C11.6578 11.4831 12.9211 12.7627 14.9786 12.7627C16.9713 12.7627 18.4344 11.5124 18.4344 10.2983C18.4344 9.97662 18.1875 9.74115 17.7716 9.68837C17.3291 10.3914 16.6031 10.7452 15.9281 10.7452C15.0917 10.7452 14.395 9.99014 14.395 8.96892C14.395 7.61253 15.4468 6.11894 16.3308 6.11894C16.6725 6.11894 16.8429 6.33104 16.8429 6.65316C16.843 6.92234 16.7556 7.13619 16.5064 7.34288ZM6.00994 9.45337C5.6415 9.91016 4.5796 10.1369 2.94611 9.93751C4.11157 7.02552 4.89205 4.25155 4.89205 2.19861C4.89221 1.04526 4.30788 0.308319 3.2541 0.308319C2.63017 0.308319 1.95835 0.577338 1.50034 1.25958C1.80594 1.61176 1.90982 2.25823 1.90982 2.81869C1.90982 6.90564 0 9.77709 0 11.4572C0 12.1498 0.401692 12.5248 0.831382 12.7552C1.13874 12.5034 1.67247 12.3258 2.04807 12.3258C2.91079 12.3258 4.2363 12.9009 5.64007 12.8784C6.52379 12.8643 7.00137 11.9429 6.99007 11.2376C6.98037 10.6298 6.6264 9.8798 6.00994 9.45337Z" fill="#4B4F54"/>
</g>
<defs>
<clipPath id="clip0_1257_10734">
<rect width="48" height="20" fill="white"/>
</clipPath>
</defs>
</svg>
