<svg width="12" height="15" viewBox="0 0 12 15" fill="none" xmlns="http://www.w3.org/2000/svg">
<path d="M11.3333 6.29513C11.3333 9.99304 6.15621 13.4444 6.15621 13.4444C6.15621 13.4444 0.979126 9.99304 0.979126 6.29513C0.979126 4.92208 1.52457 3.60527 2.49546 2.63437C3.46635 1.66348 4.78316 1.11804 6.15621 1.11804C7.52926 1.11804 8.84607 1.66348 9.81696 2.63437C10.7879 3.60527 11.3333 4.92208 11.3333 6.29513Z" fill="#0D0D0E" stroke="#0D0D0E" stroke-width="1.33333" stroke-linecap="round" stroke-linejoin="round"/>
<path d="M6.15622 7.52778C6.83699 7.52778 7.38886 6.97591 7.38886 6.29514C7.38886 5.61437 6.83699 5.0625 6.15622 5.0625C5.47546 5.0625 4.92358 5.61437 4.92358 6.29514C4.92358 6.97591 5.47546 7.52778 6.15622 7.52778Z" fill="white" stroke="white" stroke-width="1.47917" stroke-linecap="round" stroke-linejoin="round"/>
</svg>
